PathFileType	4	(X/Y/Z)	C:/Users/beibeiliu/ov580/test_trc/User3\sequence.27_training_dense_left.trc
DataRate	CameraRate	NumFrames	NumMarkers	Units	OrigDataRate	OrigDataStartFrame	OrigNumFrames
120	120	7	19	mm	120	31	91
Frame#	Time	ThumbCMC			ThumbMCP			ThumbIP			ThumbTip			IndexMCP			IndexPIP			IndexTip			MiddleMCP			MiddlePIP			MiddleTip			RingMCP			RingPIP			RingTip			PinkyMCP			PinkyPIP			PinkyTip			BackHand1			BackHand2			BackHand3	
		X0	Y0	Z0	X1	Y1	Z1	X2	Y2	Z2	X3	Y3	Z3	X4	Y4	Z4	X5	Y5	Z5	X6	Y6	Z6	X7	Y7	Z7	X8	Y8	Z8	X9	Y9	Z9	X10	Y10	Z10	X11	Y11	Z11	X12	Y12	Z12	X13	Y13	Z13	X14	Y14	Z14	X15	Y15	Z15	X16	Y16	Z16	X17	Y17	Z17	X18	Y18	Z18	
30	0.25	-46.1876	-12.1409	33.7888	-25.6564	-23.0754	9.4916	-24.3163	-32.9574	-15.0843	-39.8706	-40.0023	-38.4141	-57.5807	26.2958	-32.487	-61.2496	23.6364	-61.9732	-67.2138	-12.483	-69.7235	-88.2205	33.8815	-28.0739	-95.9151	30.3683	-62.5161	-96.7821	-7.18817	-62.6836	-106.062	21.7901	-32.2733	-113.712	-1.60615	-51.3414	-99.9072	-24.1444	-32.2095	-122.776	-3.89246	-19.978	-119.67	-29.74	-22.4476	-102.526	-33.8563	7.07792	-101.582	25.4785	21.6368	-99.425	17.3877	53.3246	-67.7737	18.707	33.598	
31	0.258333	-44.1292	-11.9809	35.0148	-24.7344	-24.1456	8.09312	-25.787	-31.8327	-17.7045	-41.4531	-40.8795	-41.4612	-63.2667	29.9766	-28.9996	-61.0867	31.2632	-59.7859	-64.2302	-0.838463	-72.0555	-88.8714	36.4164	-31.5525	-96.1117	29.2633	-62.3594	-92.8155	-10.2149	-62.21	-109.504	16.3463	-30.2542	-111.958	-3.19564	-51.0609	-99.0641	-26.4525	-28.3689	-124.191	-6.95912	-16.6211	-116.503	-35.9675	-18.3815	-102.319	-36.3158	5.9303	-101.029	23.4101	22.5942	-97.3988	14.5325	53.7307	-64.1344	17.1033	31.6506	
32	0.266667	-42.6458	-10.6957	32.8314	-25.9634	-21.142	7.76778	-23.4572	-30.8107	-21.6453	-45.3497	-36.833	-39.7321	-60.8451	30.1633	-23.2481	-64.8583	38.7208	-56.7564	-67.5482	10.9064	-74.1643	-91.2046	33.3375	-29.8368	-98.1849	27.9777	-62.6256	-89.9264	-11.0491	-57.4828	-106.063	13.5643	-32.1367	-110.566	-10.427	-49.7062	-96.6313	-28.3251	-24.2041	-122.585	-10.7335	-18.0467	-109.249	-35.2236	-19.2412	-96.4744	-33.4223	9.49961	-102.214	22.8765	21.5475	-97.2224	13.3258	53.4462	-70.122	16.9067	33.4457	
33	0.275	-38.7595	-8.9868	34.2386	-24.252	-18.7594	5.5803	-24.3167	-27.0337	-26.4514	-43.2495	-34.3739	-40.3822	-65.2153	32.2219	-22.7927	-67.5969	43.0309	-54.4968	-66.6945	16.3549	-74.496	-88.7369	31.2158	-36.6346	-93.8324	18.076	-64.6632	-84.4367	-16.7912	-51.0719	-103.277	6.49777	-35.5809	-103.89	-19.7809	-45.2135	-90.5654	-29.4259	-14.2611	-118.553	-14.918	-21.6327	-104.572	-36.5846	-16.635	-96.1474	-36.6409	12.0802	-98.6316	22.735	20.4802	-97.8887	15.2014	49.3327	-68.9363	20.3421	32.6636	
34	0.283333	-40.6811	-7.55339	34.8233	-23.1792	-17.3118	7.21667	-23.2728	-23.4132	-21.8392	-43.0837	-29.984	-40.9098	-63.662	32.9132	-22.6547	-69.1108	39.4533	-57.9382	-67.9059	15.505	-72.9845	-86.3783	24.9626	-41.7962	-87.87	0.554514	-63.3444	-77.7089	-24.0186	-33.3394	-103.215	1.35751	-33.7007	-94.9009	-29.1292	-39.2335	-85.9734	-29.7427	-5.87014	-117.151	-12.6256	-17.7295	-101.382	-38.6525	-15.3356	-91.6716	-33.2379	12.6579	-99.1265	21.809	20.7919	-98.912	12.6916	53.5244	-70.4681	20.1741	33.2557	
35	0.291667	-38.6354	-8.9445	35.6264	-24.5491	-14.0757	3.9954	-24.8369	-19.9125	-22.4598	-43.0988	-27.0809	-41.653	-61.884	34.1809	-27.3147	-63.6404	31.1478	-62.9919	-63.3057	2.1869	-66.5504	-87.632	18.7598	-43.9912	-82.1426	-8.98638	-59.3875	-73.4926	-26.0305	-25.1293	-101.932	-0.157812	-33.6823	-94.0643	-31.2897	-34.6075	-84.3128	-29.5016	-4.6271	-115.035	-12.4511	-23.5057	-101.086	-36.5768	-16.5144	-95.435	-32.497	10.7089	-100.776	24.4172	18.8349	-99.7655	15.2913	51.5361	-68.3571	18.4943	34.2791	
36	0.3	-38.1902	-8.95603	32.7546	-25.4262	-13.6843	2.31595	-24.6667	-18.8623	-24.8684	-39.8442	-24.8948	-49.9656	-63.1112	28.6367	-35.9926	-64.4727	17.1143	-65.5196	-62.7984	-14.2608	-52.6651	-82.6537	17.1218	-44.11	-79.5542	-12.1035	-58.5596	-77.6415	-24.755	-20.7412	-100.366	4.65988	-33.9732	-96.3075	-24.9736	-38.6666	-83.1516	-24.3566	-3.94682	-112.842	-6.05215	-25.774	-102.415	-29.281	-21.8246	-95.9273	-26.5615	8.74579	-100.218	25.6106	19.7315	-97.2166	18.3505	48.1908	-66.5673	19.7153	31.6853	
